<svg width="49" height="46" viewBox="0 0 49 46" fill="none" xmlns="http://www.w3.org/2000/svg">
<path d="M24.4824 0C10.9297 0 0 8.88026 0 19.661C0 26.6588 4.54676 32.7863 11.3669 36.2849L9.05853 45.0413C9.01502 45.1722 9.00835 45.3134 9.03924 45.4479C9.07012 45.5828 9.13734 45.7067 9.23343 45.8049C9.37353 45.9301 9.55378 45.9996 9.74057 46C9.89543 45.9876 10.0424 45.9252 10.1602 45.8226L20.0932 39.0204C21.5594 39.2257 23.0374 39.3323 24.5177 39.3398C38.053 39.3398 49 30.4596 49 19.661C49 8.86251 38.0178 0 24.4824 0Z" fill="#392020"/>
</svg>
