<svg width="65" height="70" viewBox="0 0 65 70" fill="none" xmlns="http://www.w3.org/2000/svg">
<path d="M54.6646 46.6809C54.6646 58.8275 44.8181 68.6743 32.6719 68.6743C20.5257 68.6743 10.6792 58.8275 10.6792 46.6809C10.6792 34.5342 20.5257 24.6875 32.6719 24.6875C44.8181 24.6875 54.6646 34.5342 54.6646 46.6809Z" fill="#FFE7CD" stroke="black" stroke-width="2.01463"/>
<ellipse cx="22.6301" cy="49.234" rx="3.06373" ry="3.06383" fill="black"/>
<ellipse cx="42.5442" cy="49.234" rx="3.06373" ry="3.06383" fill="black"/>
<path d="M35.9221 50.7578C35.9221 52.6003 34.4285 54.094 32.5861 54.094C30.7436 54.094 29.25 52.6003 29.25 50.7578" stroke="black" stroke-width="1.63402" stroke-linecap="round" stroke-linejoin="round"/>
<ellipse cx="2.97863" cy="2.29787" rx="2.97863" ry="2.29787" transform="matrix(0.981024 0.193888 -0.193876 0.981026 16.0312 51.2765)" fill="#FF9CA2"/>
<ellipse cx="2.97863" cy="2.29787" rx="2.97863" ry="2.29787" transform="matrix(-0.981024 0.193888 0.193876 0.981026 49.2891 51.2765)" fill="#FF9CA2"/>
<rect x="10.8845" y="27.5744" width="43.4029" height="12.2554" rx="1.02126" fill="#FEFCE8" stroke="black" stroke-width="2.04252"/>
<mask id="path-8-inside-1_811_9927" fill="white">
<path fill-rule="evenodd" clip-rule="evenodd" d="M43.0094 28.6119C40.3101 31.313 36.707 32.9623 32.7496 32.9623C28.7502 32.9623 25.1127 31.2778 22.4042 28.5256C21.6364 29.4599 20.7405 30.3142 19.7237 31.0571C13.8124 35.3757 6.05152 34.2922 2.38932 28.6371C-1.27288 22.9819 0.550387 14.8965 6.4617 10.5779C10.4885 7.636 15.3735 7.20091 19.2366 9.01009C21.7418 3.66261 26.8524 0 32.7496 0C38.6249 0 43.7195 3.63548 46.2346 8.95063C50.077 7.21085 54.8984 7.66864 58.8804 10.5778C64.7918 14.8965 66.615 22.9819 62.9528 28.637C59.2906 34.2922 51.5298 35.3757 45.6184 31.057C44.633 30.3371 43.7612 29.5125 43.0094 28.6119Z"/>
</mask>
<path fill-rule="evenodd" clip-rule="evenodd" d="M43.0094 28.6119C40.3101 31.313 36.707 32.9623 32.7496 32.9623C28.7502 32.9623 25.1127 31.2778 22.4042 28.5256C21.6364 29.4599 20.7405 30.3142 19.7237 31.0571C13.8124 35.3757 6.05152 34.2922 2.38932 28.6371C-1.27288 22.9819 0.550387 14.8965 6.4617 10.5779C10.4885 7.636 15.3735 7.20091 19.2366 9.01009C21.7418 3.66261 26.8524 0 32.7496 0C38.6249 0 43.7195 3.63548 46.2346 8.95063C50.077 7.21085 54.8984 7.66864 58.8804 10.5778C64.7918 14.8965 66.615 22.9819 62.9528 28.637C59.2906 34.2922 51.5298 35.3757 45.6184 31.057C44.633 30.3371 43.7612 29.5125 43.0094 28.6119Z" fill="#FEFCEA"/>
<path d="M43.0094 28.6119L44.5775 27.303C44.2098 26.8626 43.6739 26.5971 43.1008 26.5714C42.5277 26.5458 41.9702 26.7623 41.5647 27.1681L43.0094 28.6119ZM22.4042 28.5256L23.86 27.093C23.4538 26.6802 22.8914 26.4593 22.3128 26.4852C21.7343 26.5111 21.1939 26.7813 20.8262 27.2288L22.4042 28.5256ZM19.7237 31.0571L18.5188 29.4078L18.5188 29.4078L19.7237 31.0571ZM6.4617 10.5779L7.66661 12.2271L6.4617 10.5779ZM19.2366 9.01009L18.3703 10.8598C19.3918 11.3382 20.6077 10.898 21.0862 9.87659L19.2366 9.01009ZM46.2346 8.95063L44.3883 9.82428C44.8651 10.8318 46.0616 11.2711 47.0771 10.8113L46.2346 8.95063ZM58.8804 10.5778L60.0854 8.92858L60.0854 8.92858L58.8804 10.5778ZM62.9528 28.637L64.6673 29.7473L64.6673 29.7473L62.9528 28.637ZM45.6184 31.057L46.8234 29.4078L46.8234 29.4078L45.6184 31.057ZM41.5647 27.1681C39.2154 29.5189 36.12 30.9198 32.7496 30.9198V35.0048C37.294 35.0048 41.4049 33.107 44.4542 30.0557L41.5647 27.1681ZM32.7496 30.9198C29.3437 30.9198 26.2181 29.4891 23.86 27.093L20.9484 29.9583C24.0072 33.0665 28.1567 35.0048 32.7496 35.0048V30.9198ZM20.9286 32.7063C22.0866 31.8603 23.1073 30.887 23.9822 29.8225L20.8262 27.2288C20.1655 28.0327 19.3945 28.768 18.5188 29.4078L20.9286 32.7063ZM0.674893 29.7473C5.06736 36.5302 14.2133 37.6124 20.9286 32.7063L18.5188 29.4078C13.4115 33.139 7.03568 32.0543 4.10375 27.5268L0.674893 29.7473ZM5.25679 8.9286C-1.40828 13.7979 -3.6544 23.062 0.674893 29.7473L4.10375 27.5268C1.10865 22.9018 2.50906 15.9951 7.66661 12.2271L5.25679 8.9286ZM20.1029 7.16037C15.5181 5.01319 9.84302 5.57802 5.25679 8.9286L7.66661 12.2271C11.134 9.69398 15.229 9.38863 18.3703 10.8598L20.1029 7.16037ZM21.0862 9.87659C23.2989 5.15347 27.7429 2.04252 32.7496 2.04252V-2.04252C25.9618 -2.04252 20.1847 2.17174 17.387 8.14358L21.0862 9.87659ZM32.7496 2.04252C37.7379 2.04252 42.1672 5.13034 44.3883 9.82428L48.0808 8.07699C45.2717 2.14061 39.512 -2.04252 32.7496 -2.04252V2.04252ZM47.0771 10.8113C50.2037 9.39562 54.2469 9.72223 57.6755 12.2271L60.0854 8.92858C55.5498 5.61505 49.9503 5.02609 45.3921 7.08996L47.0771 10.8113ZM57.6755 12.2271C62.8331 15.9951 64.2335 22.9018 61.2384 27.5268L64.6673 29.7473C68.9965 23.062 66.7504 13.7979 60.0854 8.92858L57.6755 12.2271ZM61.2384 27.5268C58.3065 32.0543 51.9307 33.139 46.8234 29.4078L44.4135 32.7063C51.1289 37.6123 60.2748 36.5301 64.6673 29.7473L61.2384 27.5268ZM46.8234 29.4078C45.9747 28.7878 45.2243 28.078 44.5775 27.303L41.4414 29.9208C42.298 30.947 43.2913 31.8864 44.4135 32.7063L46.8234 29.4078Z" fill="black" mask="url(#path-8-inside-1_811_9927)"/>
<g filter="url(#filter0_f_811_9927)">
<ellipse cx="1.86914" cy="3.25586" rx="1.86914" ry="3.25586" transform="matrix(0.483516 0.875336 -0.875323 0.483539 11.8203 10.3829)" fill="white"/>
</g>
<g filter="url(#filter1_f_811_9927)">
<ellipse cx="2.63828" cy="4.59564" rx="2.63828" ry="4.59564" transform="matrix(0.483516 0.875336 -0.875323 0.483539 30.6719 2.21277)" fill="white"/>
</g>
<defs>
<filter id="filter0_f_811_9927" x="6.20197" y="10.642" width="7.34215" height="5.90282" filterUnits="userSpaceOnUse" color-interpolation-filters="sRGB">
<feFlood flood-opacity="0" result="BackgroundImageFix"/>
<feBlend mode="normal" in="SourceGraphic" in2="BackgroundImageFix" result="shape"/>
<feGaussianBlur stdDeviation="0.34042" result="effect1_foregroundBlur_811_9927"/>
</filter>
<filter id="filter1_f_811_9927" x="23.0223" y="2.85859" width="9.80309" height="7.77147" filterUnits="userSpaceOnUse" color-interpolation-filters="sRGB">
<feFlood flood-opacity="0" result="BackgroundImageFix"/>
<feBlend mode="normal" in="SourceGraphic" in2="BackgroundImageFix" result="shape"/>
<feGaussianBlur stdDeviation="0.34042" result="effect1_foregroundBlur_811_9927"/>
</filter>
</defs>
</svg>
