<svg width="111" height="128" viewBox="0 0 111 128" fill="none" xmlns="http://www.w3.org/2000/svg">
<ellipse cx="55.5" cy="71.7804" rx="55" ry="56.2196" fill="white"/>
<path d="M106.239 71.7803C106.239 99.7824 83.5235 122.484 55.5011 122.484C27.4787 122.484 4.76367 99.7824 4.76367 71.7803C4.76367 43.7782 27.4787 21.0764 55.5011 21.0764C83.5235 21.0764 106.239 43.7782 106.239 71.7803Z" fill="#86DBD9" stroke="black" stroke-width="3"/>
<path d="M103.451 71.8608C103.451 98.3307 81.9787 119.789 55.4919 119.789C29.005 119.789 7.5332 98.3307 7.5332 71.8608" stroke="#4CB1C3" stroke-width="2.55025" stroke-linecap="round"/>
<path d="M103.451 71.7803C103.451 45.3104 81.9787 23.8524 55.4919 23.8524C29.005 23.8524 7.5332 45.3104 7.5332 71.7803" stroke="white" stroke-width="2.55025" stroke-linecap="round"/>
<path d="M88.4065 71.7803C88.4065 89.9409 73.6747 104.665 55.5001 104.665C37.3255 104.665 22.5938 89.9409 22.5938 71.7803C22.5938 53.6197 37.3255 38.896 55.5001 38.896C73.6747 38.896 88.4065 53.6197 88.4065 71.7803Z" fill="#FFE7CD" stroke="black" stroke-width="3"/>
<ellipse cx="40.6807" cy="75.545" rx="4.52055" ry="4.51765" fill="black"/>
<ellipse cx="70.0635" cy="75.545" rx="4.52055" ry="4.51765" fill="black"/>
<path d="M60.294 77.7922C60.294 80.509 58.0901 82.7115 55.3716 82.7115C52.653 82.7115 50.4492 80.509 50.4492 77.7922" stroke="black" stroke-width="2.4" stroke-linecap="round" stroke-linejoin="round"/>
<ellipse cx="4.39487" cy="3.38832" rx="4.39487" ry="3.38832" transform="matrix(0.981049 0.193762 -0.194002 0.981001 30.9453 78.5569)" fill="#FF9CA2"/>
<ellipse cx="4.39487" cy="3.38832" rx="4.39487" ry="3.38832" transform="matrix(-0.981049 0.193762 0.194002 0.981001 80.0156 78.5569)" fill="#FF9CA2"/>
<rect x="23.3457" y="40.6528" width="64.0548" height="18.0824" rx="1.5" fill="#FEFCE8" stroke="black" stroke-width="3"/>
<mask id="path-12-inside-1_1072_73799" fill="white">
<path fill-rule="evenodd" clip-rule="evenodd" d="M70.7485 42.189C66.7657 46.1714 61.4495 48.6032 55.6105 48.6032C49.7108 48.6032 44.3447 46.1206 40.3486 42.0641C39.2162 43.4406 37.8952 44.6993 36.3959 45.7939C27.6737 52.1618 16.2225 50.5642 10.8189 42.2256C5.41536 33.887 8.1056 21.965 16.8278 15.5971C22.7678 11.2604 29.9737 10.6181 35.673 13.2835C39.3697 5.39964 46.9099 0 55.6105 0C64.2795 0 71.7964 5.36041 75.5075 13.1975C81.1769 10.6325 88.2905 11.3076 94.1659 15.5971C102.888 21.965 105.578 33.887 100.175 42.2256C94.7711 50.5642 83.3199 52.1618 74.5977 45.7939C73.1439 44.7325 71.8576 43.5167 70.7485 42.189Z"/>
</mask>
<path fill-rule="evenodd" clip-rule="evenodd" d="M70.7485 42.189C66.7657 46.1714 61.4495 48.6032 55.6105 48.6032C49.7108 48.6032 44.3447 46.1206 40.3486 42.0641C39.2162 43.4406 37.8952 44.6993 36.3959 45.7939C27.6737 52.1618 16.2225 50.5642 10.8189 42.2256C5.41536 33.887 8.1056 21.965 16.8278 15.5971C22.7678 11.2604 29.9737 10.6181 35.673 13.2835C39.3697 5.39964 46.9099 0 55.6105 0C64.2795 0 71.7964 5.36041 75.5075 13.1975C81.1769 10.6325 88.2905 11.3076 94.1659 15.5971C102.888 21.965 105.578 33.887 100.175 42.2256C94.7711 50.5642 83.3199 52.1618 74.5977 45.7939C73.1439 44.7325 71.8576 43.5167 70.7485 42.189Z" fill="#FEFCEA"/>
<path d="M70.7485 42.189L73.0509 40.2657C72.5109 39.6193 71.7241 39.2297 70.8827 39.192C70.0413 39.1543 69.2228 39.472 68.6273 40.0676L70.7485 42.189ZM40.3486 42.0641L42.4858 39.9588C41.8892 39.3532 41.0637 39.0291 40.2144 39.0671C39.3652 39.1051 38.5719 39.5017 38.0319 40.1582L40.3486 42.0641ZM36.3959 45.7939L34.6269 43.3709L34.6269 43.3709L36.3959 45.7939ZM16.8278 15.5971L18.5967 18.0201L18.5967 18.0201L16.8278 15.5971ZM35.673 13.2835L34.4021 16.001C35.9019 16.7024 37.6863 16.0562 38.3892 14.5571L35.673 13.2835ZM75.5075 13.1975L72.7961 14.4814C73.4965 15.9605 75.2531 16.6054 76.7441 15.9308L75.5075 13.1975ZM94.1659 15.5971L92.3969 18.0201L92.3969 18.0201L94.1659 15.5971ZM74.5977 45.7939L76.3667 43.3709L76.3667 43.3709L74.5977 45.7939ZM68.6273 40.0676C65.1587 43.5358 60.588 45.6032 55.6105 45.6032V51.6032C62.311 51.6032 68.3728 48.807 72.8697 44.3104L68.6273 40.0676ZM55.6105 45.6032C50.5816 45.6032 45.9671 43.4927 42.4858 39.9588L38.2114 44.1695C42.7222 48.7484 48.84 51.6032 55.6105 51.6032V45.6032ZM38.1648 48.2169C39.8713 46.971 41.3757 45.5377 42.6654 43.9701L38.0319 40.1582C37.0568 41.3434 35.9191 42.4276 34.6269 43.3709L38.1648 48.2169ZM8.30134 43.857C14.7779 53.8514 28.2625 55.4464 38.1648 48.2169L34.6269 43.3709C27.0849 48.8772 17.6672 47.277 13.3366 40.5941L8.30134 43.857ZM15.0588 13.1742C5.22938 20.3504 1.91666 34.0044 8.30134 43.857L13.3366 40.5941C8.91407 33.7695 10.9818 23.5796 18.5967 18.0201L15.0588 13.1742ZM36.9439 10.566C30.1854 7.40521 21.8203 8.23775 15.0588 13.1742L18.5967 18.0201C23.7154 14.283 29.762 13.831 34.4021 16.001L36.9439 10.566ZM38.3892 14.5571C41.6558 7.59069 48.2166 3 55.6105 3V-3C45.6031 -3 37.0837 3.20859 32.9568 12.0098L38.3892 14.5571ZM55.6105 3C62.9777 3 69.5173 7.55722 72.7961 14.4814L78.2189 11.9136C74.0755 3.1636 65.5813 -3 55.6105 -3V3ZM76.7441 15.9308C81.3628 13.8411 87.3342 14.324 92.3969 18.0201L95.9348 13.1742C89.2468 8.29134 80.9909 7.42391 74.2709 10.4642L76.7441 15.9308ZM92.3969 18.0201C100.012 23.5796 102.08 33.7695 97.6571 40.5941L102.692 43.857C109.077 34.0044 105.764 20.3504 95.9348 13.1742L92.3969 18.0201ZM97.6571 40.5941C93.3264 47.277 83.9087 48.8772 76.3667 43.3709L72.8288 48.2169C82.7311 55.4464 96.2157 53.8514 102.692 43.857L97.6571 40.5941ZM76.3667 43.3709C75.1137 42.4561 74.0059 41.409 73.0509 40.2657L68.4461 44.1122C69.7093 45.6245 71.1741 47.0088 72.8288 48.2169L76.3667 43.3709Z" fill="black" mask="url(#path-12-inside-1_1072_73799)"/>
<g filter="url(#filter0_f_1072_73799)">
<ellipse cx="2.7565" cy="4.80328" rx="2.7565" ry="4.80328" transform="matrix(0.483765 0.875198 -0.87546 0.48329 24.7285 15.3098)" fill="white"/>
</g>
<g filter="url(#filter1_f_1072_73799)">
<ellipse cx="3.89078" cy="6.7798" rx="3.89078" ry="6.7798" transform="matrix(0.483765 0.875198 -0.87546 0.48329 52.5508 3.2627)" fill="white"/>
</g>
<defs>
<filter id="filter0_f_1072_73799" x="16.4434" y="15.6958" width="10.8262" height="8.6958" filterUnits="userSpaceOnUse" color-interpolation-filters="sRGB">
<feFlood flood-opacity="0" result="BackgroundImageFix"/>
<feBlend mode="normal" in="SourceGraphic" in2="BackgroundImageFix" result="shape"/>
<feGaussianBlur stdDeviation="0.5" result="effect1_foregroundBlur_1072_73799"/>
</filter>
<filter id="filter1_f_1072_73799" x="41.2695" y="4.21899" width="14.457" height="11.4512" filterUnits="userSpaceOnUse" color-interpolation-filters="sRGB">
<feFlood flood-opacity="0" result="BackgroundImageFix"/>
<feBlend mode="normal" in="SourceGraphic" in2="BackgroundImageFix" result="shape"/>
<feGaussianBlur stdDeviation="0.5" result="effect1_foregroundBlur_1072_73799"/>
</filter>
</defs>
</svg>
